<svg width="159" height="35" viewBox="0 0 159 35" fill="none" xmlns="http://www.w3.org/2000/svg">
<path fill-rule="evenodd" clip-rule="evenodd" d="M6.59531 8.62843C9.33565 5.12621 13.7239 2.85726 18.6698 2.85726C23.6448 2.85726 28.0553 5.15298 30.7924 8.69033C30.6759 8.80415 30.5698 8.92211 30.4737 9.03992C29.9724 9.6568 29.5951 10.4513 29.293 11.2583C28.6844 12.881 28.2202 15.0008 27.7904 16.9858L27.7522 17.1642C27.3234 19.1456 26.9248 20.9882 26.4428 22.3561C26.2263 22.9706 26.021 23.4051 25.8389 23.6834C25.6489 23.4029 25.4334 22.9631 25.2052 22.3398C24.6898 20.9326 24.2562 19.0187 23.7967 16.975L23.7818 16.908V16.908C23.3401 14.945 22.8717 12.8622 22.2876 11.2679C21.9941 10.4671 21.6341 9.68042 21.1632 9.06927C20.701 8.46951 19.9317 7.79263 18.8065 7.79263C17.6884 7.79263 16.9156 8.46216 16.4467 9.0552C15.9667 9.66242 15.5924 10.4458 15.2842 11.247C14.6633 12.8606 14.1557 14.9712 13.6833 16.9589L13.6346 17.1642C13.1668 19.1333 12.7295 20.9741 12.2331 22.3446C12.0437 22.868 11.8648 23.2662 11.703 23.5507C11.5448 23.2675 11.3704 22.872 11.1861 22.353C10.7099 21.0117 10.2928 19.2224 9.84475 17.3006L9.76631 16.9642C9.30211 14.9753 8.79847 12.8609 8.16879 11.2423C7.85594 10.4381 7.47327 9.65076 6.97809 9.04071C6.86595 8.90264 6.73853 8.76246 6.59531 8.62843ZM4.93678 11.3176C5.0673 11.5624 5.20537 11.8659 5.34812 12.2329C5.89318 13.6339 6.35491 15.5456 6.83041 17.5829L6.92296 17.9798C7.35588 19.8387 7.80622 21.7723 8.33668 23.2662C8.61882 24.0608 8.95954 24.839 9.39771 25.4438C9.81209 26.0158 10.5555 26.7546 11.6986 26.7546C12.8383 26.7546 13.5835 26.0194 14.0007 25.45C14.4426 24.8465 14.7889 24.0692 15.0767 23.2741C15.6285 21.7507 16.0983 19.7717 16.5479 17.8778V17.8777L16.6167 17.5882C17.1011 15.5498 17.5675 13.6343 18.1086 12.2281C18.3592 11.5767 18.5939 11.1229 18.7981 10.8413C18.9918 11.1204 19.213 11.5671 19.4476 12.2073C19.9631 13.6145 20.3962 15.5285 20.8559 17.5721L20.871 17.6391C21.3125 19.6021 21.7809 21.6849 22.365 23.279C22.6585 24.0802 23.0185 24.8668 23.4894 25.4778C23.9517 26.0778 24.7209 26.7546 25.8459 26.7546C26.9769 26.7546 27.7434 26.0716 28.2001 25.4663C28.6639 24.8522 29.0127 24.063 29.2944 23.2631C29.8359 21.7267 30.2664 19.7332 30.6769 17.8367V17.8367L30.7357 17.5614C31.1778 15.5202 31.602 13.6137 32.1259 12.217C32.2393 11.9131 32.3511 11.654 32.4577 11.4364C33.2604 13.1844 33.7056 15.1146 33.7056 17.1436C33.7056 25.0336 26.9741 31.4301 18.6698 31.4301C10.3656 31.4301 3.63379 25.0336 3.63379 17.1436C3.63379 15.0686 4.09941 13.0968 4.93678 11.3176ZM18.6698 0C8.70481 0 0.626587 7.67545 0.626587 17.1436C0.626587 26.6117 8.70481 34.2871 18.6698 34.2871C28.635 34.2871 36.7128 26.6117 36.7128 17.1436C36.7128 7.67545 28.635 0 18.6698 0ZM19.0136 10.6021C19.0136 10.6025 19.01 10.6052 19.003 10.609C19.01 10.6037 19.0136 10.6018 19.0136 10.6021ZM18.5979 10.6041C18.5909 10.6 18.5875 10.5972 18.5875 10.5969C18.5875 10.5965 18.591 10.5985 18.5979 10.6041ZM25.6173 23.9546C25.6173 23.9546 25.6205 23.9515 25.627 23.9475C25.6205 23.9528 25.6173 23.955 25.6173 23.9546ZM26.0545 23.9431C26.0615 23.9471 26.0652 23.9497 26.0652 23.9502C26.0652 23.9506 26.0615 23.9484 26.0545 23.9431ZM11.3904 23.9803C11.3903 23.9798 11.3947 23.9758 11.4034 23.9701C11.3948 23.9776 11.3904 23.9807 11.3904 23.9803ZM11.9994 23.9727C12.008 23.9785 12.0123 23.9825 12.0123 23.9829C12.0123 23.9834 12.0079 23.9807 11.9994 23.9727Z" fill="#81818B"/>
<path d="M42.3753 27.2206L38 13H41.8325L44.4276 23.2353L47.4448 13H51.7298L54.7475 23.2353L57.3725 13H61.205L56.7992 27.2206H52.7861L49.5873 16.5838L46.389 27.2206H42.3753Z" fill="#81818B"/>
<path d="M67.6123 26.9088C66.325 26.9088 65.2686 26.7173 64.4439 26.335C63.6196 25.9338 63.0059 25.4082 62.6032 24.7583C62.2011 24.1083 62 23.3917 62 22.6081C62 21.2893 62.5429 20.2189 63.6291 19.397C64.7153 18.5751 66.3454 18.1641 68.5179 18.1641H72.3199V17.8201C72.3199 16.8453 72.028 16.1285 71.4448 15.6698C70.8615 15.2111 70.137 14.9817 69.2723 14.9817C68.4874 14.9817 67.8034 15.1633 67.2201 15.5265C66.6368 15.8705 66.2746 16.3866 66.1339 17.0746H62.3617C62.4625 16.0426 62.8248 15.1442 63.448 14.3796C64.0921 13.6151 64.9169 13.0321 65.9223 12.6307C66.9287 12.2103 68.0548 12 69.3022 12C71.4348 12 73.1143 12.5065 74.3417 13.5195C75.5686 14.5325 76.1824 15.9661 76.1824 17.8201V26.5647H72.8927L72.531 24.2711C72.0884 25.0356 71.4647 25.6661 70.6604 26.1634C69.8755 26.6602 68.8597 26.9088 67.6123 26.9088ZM68.4874 24.0416C69.5941 24.0416 70.4488 23.6974 71.0521 23.0094C71.6758 22.3215 72.0684 21.4707 72.2296 20.4577H68.94C67.9141 20.4577 67.1802 20.6394 66.7371 21.0025C66.295 21.3464 66.0735 21.7768 66.0735 22.2927C66.0735 22.847 66.295 23.2771 66.7371 23.5828C67.1802 23.8885 67.7629 24.0416 68.4874 24.0416Z" fill="#81818B"/>
<path d="M82.4915 27.2206L77 13H81.043L84.8451 23.7516L88.6471 13H92.6907L87.1687 27.2206H82.4915Z" fill="#81818B"/>
<path d="M101.754 26.9088C100.246 26.9088 98.9082 26.6027 97.7412 25.9913C96.5746 25.3794 95.6595 24.5194 94.9954 23.4107C94.3313 22.3024 94 21.0216 94 19.569C94 18.0972 94.3218 16.7879 94.965 15.6411C95.6291 14.4943 96.5342 13.6056 97.6813 12.9748C98.8473 12.3249 100.215 12 101.785 12C103.253 12 104.551 12.3058 105.678 12.9174C106.804 13.5291 107.679 14.3701 108.303 15.4404C108.946 16.4917 109.269 17.6672 109.269 18.9669C109.269 19.1772 109.258 19.397 109.238 19.6263C109.238 19.8557 109.228 20.0946 109.208 20.3431H97.832C97.9123 21.4516 98.315 22.3214 99.039 22.9523C99.7829 23.5828 100.679 23.8982 101.725 23.8982C102.509 23.8982 103.163 23.7359 103.686 23.4107C104.229 23.0669 104.631 22.6272 104.893 22.0918H108.816C108.534 22.9904 108.061 23.8124 107.397 24.5578C106.753 25.2839 105.949 25.8572 104.983 26.278C104.038 26.6983 102.961 26.9088 101.754 26.9088ZM101.785 14.9817C100.84 14.9817 100.004 15.2398 99.2799 15.7558C98.556 16.2528 98.0934 17.0173 97.8918 18.0495H105.345C105.285 17.1129 104.923 16.3674 104.259 15.8131C103.595 15.2589 102.771 14.9817 101.785 14.9817Z" fill="#81818B"/>
<path d="M110 26.6428V6H113.862V26.6428H110Z" fill="#81818B"/>
<path d="M122.754 26.9088C121.246 26.9088 119.908 26.6027 118.741 25.9913C117.575 25.3794 116.66 24.5194 115.995 23.4107C115.331 22.3024 115 21.0216 115 19.569C115 18.0972 115.322 16.7879 115.965 15.6411C116.629 14.4943 117.534 13.6056 118.681 12.9748C119.848 12.3249 121.215 12 122.785 12C124.253 12 125.551 12.3058 126.678 12.9174C127.804 13.5291 128.679 14.3701 129.303 15.4404C129.946 16.4917 130.269 17.6672 130.269 18.9669C130.269 19.1772 130.258 19.397 130.238 19.6263C130.238 19.8557 130.228 20.0946 130.208 20.3431H118.832C118.912 21.4516 119.315 22.3214 120.039 22.9523C120.783 23.5828 121.679 23.8982 122.725 23.8982C123.509 23.8982 124.163 23.7359 124.686 23.4107C125.229 23.0669 125.631 22.6272 125.893 22.0918H129.816C129.534 22.9904 129.061 23.8124 128.397 24.5578C127.753 25.2839 126.949 25.8572 125.983 26.278C125.038 26.6983 123.962 26.9088 122.754 26.9088ZM122.785 14.9817C121.84 14.9817 121.004 15.2398 120.28 15.7558C119.556 16.2528 119.093 17.0173 118.892 18.0495H126.345C126.285 17.1129 125.923 16.3674 125.259 15.8131C124.595 15.2589 123.771 14.9817 122.785 14.9817Z" fill="#81818B"/>
<path d="M138.001 26.9088C136.673 26.9088 135.506 26.708 134.501 26.3067C133.494 25.886 132.689 25.3126 132.086 24.5861C131.483 23.8602 131.121 23.0191 131 22.0635H134.892C135.013 22.6174 135.335 23.0957 135.858 23.4969C136.401 23.8792 137.095 24.0703 137.94 24.0703C138.785 24.0703 139.399 23.9079 139.781 23.5828C140.183 23.258 140.384 22.8851 140.384 22.4648C140.384 21.8529 140.103 21.4419 139.54 21.2318C138.976 21.0025 138.191 20.7827 137.186 20.5725C136.542 20.4386 135.889 20.2762 135.225 20.0851C134.561 19.894 133.947 19.655 133.384 19.3683C132.841 19.0625 132.398 18.6802 132.056 18.2215C131.714 17.7436 131.543 17.1606 131.543 16.4726C131.543 15.2111 132.066 14.1503 133.113 13.2902C134.178 12.43 135.667 12 137.578 12C139.349 12 140.757 12.3918 141.802 13.1755C142.869 13.9591 143.502 15.0391 143.704 16.4153H140.053C139.831 15.364 138.996 14.8384 137.548 14.8384C136.824 14.8384 136.261 14.9722 135.858 15.2398C135.476 15.5074 135.285 15.8418 135.285 16.2432C135.285 16.6637 135.576 16.9982 136.16 17.2467C136.744 17.4952 137.518 17.7245 138.483 17.9348C139.529 18.1641 140.485 18.4222 141.35 18.7089C142.235 18.9765 142.939 19.3874 143.462 19.9417C143.985 20.4769 144.247 21.2508 144.247 22.2639C144.267 23.1434 144.025 23.9362 143.523 24.6437C143.02 25.3506 142.296 25.905 141.35 26.3067C140.405 26.708 139.288 26.9088 138.001 26.9088Z" fill="#81818B"/>
<path d="M152 26.9088C150.673 26.9088 149.506 26.708 148.5 26.3067C147.494 25.886 146.689 25.3126 146.086 24.5861C145.482 23.8602 145.12 23.0191 145 22.0635H148.892C149.013 22.6174 149.335 23.0957 149.858 23.4969C150.401 23.8792 151.095 24.0703 151.94 24.0703C152.785 24.0703 153.398 23.9079 153.781 23.5828C154.183 23.258 154.384 22.8851 154.384 22.4648C154.384 21.8529 154.102 21.4419 153.539 21.2318C152.976 21.0025 152.191 20.7827 151.186 20.5725C150.542 20.4386 149.888 20.2762 149.224 20.0851C148.561 19.894 147.947 19.655 147.384 19.3683C146.841 19.0625 146.398 18.6802 146.056 18.2215C145.713 17.7436 145.543 17.1606 145.543 16.4726C145.543 15.2111 146.066 14.1503 147.112 13.2902C148.178 12.43 149.667 12 151.578 12C153.348 12 154.756 12.3918 155.802 13.1755C156.868 13.9591 157.502 15.0391 157.703 16.4153H154.052C153.831 15.364 152.996 14.8384 151.548 14.8384C150.823 14.8384 150.26 14.9722 149.858 15.2398C149.476 15.5074 149.285 15.8418 149.285 16.2432C149.285 16.6637 149.576 16.9982 150.16 17.2467C150.743 17.4952 151.517 17.7245 152.483 17.9348C153.529 18.1641 154.485 18.4222 155.35 18.7089C156.235 18.9765 156.939 19.3874 157.462 19.9417C157.985 20.4769 158.247 21.2508 158.247 22.2639C158.267 23.1434 158.025 23.9362 157.522 24.6437C157.019 25.3506 156.295 25.905 155.35 26.3067C154.404 26.708 153.288 26.9088 152 26.9088Z" fill="#81818B"/>
</svg>
